<svg width="360" height="210" viewBox="0 0 360 210" fill="none" xmlns="http://www.w3.org/2000/svg">
<g filter="url(#filter0_d_1056_5473)">
<rect x="30" y="20" width="300" height="150" rx="20" fill="#5690FF"/>
</g>
<path opacity="0.4" fill-rule="evenodd" clip-rule="evenodd" d="M110.619 20C109.599 26.9096 103.345 46.3399 77.5836 55.1535C52.5889 63.7047 36.1231 60.7638 30.0002 58L30.0002 40C30.0002 39.9941 30.0002 39.9882 30.0002 39.9823C30.0097 28.9448 38.9604 20 50.0002 20L110.619 20Z" fill="#1E6BFF"/>
<path opacity="0.4" fill-rule="evenodd" clip-rule="evenodd" d="M194.308 170H310C321.037 170 329.986 161.059 330 150.025C330 150.017 330 150.008 330 150L330 90C329.231 101.667 315.969 125 269.077 125C222.185 125 199.692 155 194.308 170Z" fill="#1E6BFF"/>
<defs>
<filter id="filter0_d_1056_5473" x="0" y="0" width="360" height="210" filterUnits="userSpaceOnUse" color-interpolation-filters="sRGB">
<feFlood flood-opacity="0" result="BackgroundImageFix"/>
<feColorMatrix in="SourceAlpha" type="matrix" values="0 0 0 0 0 0 0 0 0 0 0 0 0 0 0 0 0 0 127 0" result="hardAlpha"/>
<feOffset dy="10"/>
<feGaussianBlur stdDeviation="15"/>
<feComposite in2="hardAlpha" operator="out"/>
<feColorMatrix type="matrix" values="0 0 0 0 0.337255 0 0 0 0 0.564706 0 0 0 0 1 0 0 0 0.4 0"/>
<feBlend mode="normal" in2="BackgroundImageFix" result="effect1_dropShadow_1056_5473"/>
<feBlend mode="normal" in="SourceGraphic" in2="effect1_dropShadow_1056_5473" result="shape"/>
</filter>
</defs>
</svg>
